PathFileType	4	(X/Y/Z)	c:\Git\powerlifing_model_clean\simulations\HC835B\Session1\HC835B_STD_0001\marker_experimental.trc
DataRate	CameraRate	NumFrames	NumMarkers	Units	OrigDataRate	OrigDataStartFrame	OrigNumFrames
240.000000	240.000000	4	48	mm	240.000000	0	337
Frame#	Time	RPSI			LPSI			RASI			LASI			RGT			RTH1			RTH2			RTH3			RTH4			RLK			RMK			RSK1			RSK2			RSK3			RSK4			RLA			RMA			RCAL1			RCAL2			RCAL3			RST			RPT			RTN			RFMB			RSMB			RVMB			RFMH			RSMH			RVMH			RPM			LGT			LTH1			LTH2			LTH3			LTH4			LLK			LMK			LSK1			LSK2			LSK3			LSK4			LLA			LMA			LCAL1			LCAL2			LCAL3			LFMH			LVMH			
		X1	Y1	Z1	X2	Y2	Z2	X3	Y3	Z3	X4	Y4	Z4	X5	Y5	Z5	X6	Y6	Z6	X7	Y7	Z7	X8	Y8	Z8	X9	Y9	Z9	X10	Y10	Z10	X11	Y11	Z11	X12	Y12	Z12	X13	Y13	Z13	X14	Y14	Z14	X15	Y15	Z15	X16	Y16	Z16	X17	Y17	Z17	X18	Y18	Z18	X19	Y19	Z19	X20	Y20	Z20	X21	Y21	Z21	X22	Y22	Z22	X23	Y23	Z23	X24	Y24	Z24	X25	Y25	Z25	X26	Y26	Z26	X27	Y27	Z27	X28	Y28	Z28	X29	Y29	Z29	X30	Y30	Z30	X31	Y31	Z31	X32	Y32	Z32	X33	Y33	Z33	X34	Y34	Z34	X35	Y35	Z35	X36	Y36	Z36	X37	Y37	Z37	X38	Y38	Z38	X39	Y39	Z39	X40	Y40	Z40	X41	Y41	Z41	X42	Y42	Z42	X43	Y43	Z43	X44	Y44	Z44	X45	Y45	Z45	X46	Y46	Z46	X47	Y47	Z47	X48	Y48	Z48	

1	0	495.8680725097657	1162.186767578125	-351.5910644531251	387.3772277832032	1159.614013671875	-347.7805175781251	555.1203002929689	1105.828247070313	-555.9026489257814	316.1325988769532	1101.561279296875	-553.0481567382814	637.9229736328126	1024.062133789063	-447.4609680175782	640.0823974609376	836.3792114257815	-459.1073608398439	627.7390747070314	819.6885986328127	-516.3955078125001	630.4175415039064	753.6418457031251	-474.2797241210939	606.6818237304689	737.8341674804689	-525.7578125000001	609.5463256835939	552.8140869140626	-456.8175048828126	483.5093078613282	538.6155395507814	-446.1657714843751	613.1923217773439	307.1038513183594	-360.3969726562501	615.5051879882814	288.1139831542969	-418.9835205078126	611.6121826171876	249.4506530761719	-371.6416015625001	600.4201660156251	231.8256835937501	-427.8488159179689	605.3931884765626	114.4802474975586	-359.2866821289063	522.3155517578126	124.0743103027344	-403.7964172363282	560.5817871093751	95.18019866943361	-304.7794189453126	529.1240234375001	57.97328186035158	-314.3470458984376	593.7783203125001	58.6957244873047	-308.9881896972657	517.3397216796876	76.05984497070314	-380.3692932128907	619.1151733398439	73.5730667114258	-366.1315002441407	531.2023925781251	95.13296508789064	-438.7735595703126	537.0283813476564	78.09720611572267	-469.3478393554689	586.3297119140626	101.8628082275391	-477.4249572753907	632.3173217773439	47.72018051147462	-410.1941223144532	537.4116210937501	50.64325332641603	-527.3009643554689	592.1514282226564	65.9669647216797	-537.4254760742189	648.2546997070314	42.33167266845704	-490.6058044433595	582.6057128906251	53.33662414550783	-596.8156738281251	244.9140167236329	1013.25927734375	-441.7845153808595	239.3641510009766	830.8228759765627	-442.0608520507814	242.5332336425782	813.938415527344	-500.3970642089845	243.4813690185547	746.2931518554689	-455.5563354492189	263.5547790527344	731.4193725585939	-511.5880737304689	265.7335205078126	564.3447265625001	-441.2061157226564	396.8696899414064	553.7055053710939	-442.1240234375001	257.4871520996094	300.0217895507813	-353.9602966308594	251.3334045410157	279.4913940429688	-403.1102294921876	257.4885559082032	244.4596710205079	-367.4575195312501	267.5628356933594	225.8811645507813	-419.5701904296876	259.4764404296876	115.2226791381836	-363.2219848632813	349.3546752929688	123.6180877685547	-400.6853027343751	307.1287841796876	93.6401824951172	-302.2415771484376	275.8489685058594	58.10429763793947	-303.4108581542969	334.0970764160157	56.30000686645509	-307.8631896972657	344.6986389160157	55.29935455322267	-530.6406250000001	229.7549285888672	41.4760856628418	-492.9366149902345	
2	0.004166666666666667	495.8665466308595	1162.181884765625	-351.6058044433594	387.3855895996095	1159.605834960938	-347.8238220214844	555.1130371093751	1105.80322265625	-555.9332275390626	316.1414184570313	1101.521484375	-553.0794677734376	637.9196777343751	1024.053955078125	-447.4721679687501	640.0944824218751	836.3872680664065	-459.1316528320314	627.7449340820314	819.7053833007815	-516.4543457031251	630.4224243164064	753.6570434570314	-474.2847900390626	606.7047119140626	737.8447265625001	-525.7695922851564	609.5374755859376	552.8272705078126	-456.8458557128907	483.5083007812501	538.6021118164064	-446.176727294922	613.1924438476564	307.1212158203126	-360.4255065917969	615.5320434570314	288.1443786621094	-418.9922790527345	611.6350097656251	249.4631042480469	-371.6568908691407	600.3314819335939	231.7724761962891	-427.8616943359376	605.4010620117189	114.4754333496094	-359.3062438964844	522.2957763671876	124.0934677124024	-403.7635803222657	560.5953979492189	95.21721649169923	-304.7607727050782	529.1270751953126	57.98260879516603	-314.3476257324219	593.7674560546876	58.67243957519533	-308.9943847656251	517.3581542968751	76.07082366943361	-380.3654785156251	619.1102905273439	73.62868499755861	-366.1245117187501	531.2128906250001	95.09156799316408	-438.8062438964845	537.0257568359376	78.1145477294922	-469.355438232422	586.3363647460939	101.8741455078125	-477.4220275878907	632.3128662109376	47.69227600097657	-410.2000122070314	537.4735107421876	50.59067916870119	-527.3313598632814	592.1546020507814	65.96902465820314	-537.4147338867189	648.2962646484376	42.34609603881837	-490.6078491210939	582.5610351562501	53.31523513793947	-596.8226928710939	244.9337310791016	1013.234008789063	-441.8128662109376	239.3665466308594	830.8137817382815	-442.1009216308595	242.5806274414063	813.8988037109377	-500.4753417968751	243.4960479736329	746.2888183593751	-455.5955200195314	263.5578918457032	731.4135131835939	-511.616424560547	265.7318725585938	564.3185424804689	-441.2246093750001	396.8961791992189	553.7168579101564	-442.1225585937501	257.4934387207032	300.0069580078126	-353.9601440429688	251.3229217529297	279.5093688964844	-403.1120605468751	257.4820251464844	244.5102081298829	-367.4388732910157	267.5768432617188	225.9035186767579	-419.5874328613282	259.4779968261719	115.2380752563477	-363.2019042968751	349.3612976074219	123.6375961303711	-400.6724853515626	307.1217956542969	93.64273834228517	-302.2437133789063	275.8526000976563	58.12633895874025	-303.3916625976563	334.0898437500001	56.31040191650392	-307.8591613769532	344.7008056640626	55.3066864013672	-530.6430053710939	229.7675781250001	41.48585510253907	-492.9373474121095	
3	0.008333333333333333	495.8530883789064	1162.172241210938	-351.6366882324219	387.3694458007814	1159.61474609375	-347.8226928710938	555.1038208007814	1105.794555664063	-555.9368896484376	316.1756591796876	1101.495361328125	-553.1208496093751	637.9228515625001	1024.044677734375	-447.4773864746095	640.0576782226564	836.3674316406252	-459.1484375000001	627.7282714843751	819.7361450195315	-516.4566040039064	630.4146728515626	753.6865844726564	-474.3082580566407	606.6920166015626	737.8305664062501	-525.7789306640626	609.5508422851564	552.8211669921876	-456.845916748047	483.4985351562501	538.6166992187501	-446.1861877441407	613.2022705078126	307.1278991699219	-360.4337768554688	615.5319824218751	288.1310424804688	-418.9998474121095	611.6233520507814	249.4688262939454	-371.6669311523438	600.3838500976564	231.8073730468751	-427.8738098144532	605.3687133789064	114.4496536254883	-359.3290100097657	522.3242797851564	124.0901031494141	-403.7894592285157	560.5885620117189	95.2008514404297	-304.7653198242188	529.1574707031251	57.967098236084	-314.3625183105469	593.7650146484376	58.68822479248048	-308.9862365722657	517.3552246093751	76.07415771484376	-380.3515319824219	619.1303710937501	73.58703613281251	-366.1289062500001	531.2026367187501	95.12788391113283	-438.784881591797	537.0408935546876	78.0894241333008	-469.3823242187501	586.3562622070314	101.8628921508789	-477.4201660156251	632.3005371093751	47.71594238281251	-410.2079162597657	537.3530273437501	50.679988861084	-527.3179931640626	592.1446533203126	65.95433807373048	-537.4484863281251	648.2567749023439	42.3348617553711	-490.5975036621095	582.5888061523439	53.31350326538087	-596.8367309570314	244.9269714355469	1013.263488769531	-441.8519897460939	239.3716430664063	830.809753417969	-442.1391601562501	242.6000061035157	813.9055175781252	-500.5164794921876	243.4937286376954	746.2954711914064	-455.6427612304689	263.6136779785157	731.3632202148439	-511.6494140625001	265.7448730468751	564.3077392578126	-441.2269287109376	396.9224548339845	553.7371215820314	-442.120574951172	257.5144348144532	299.9866027832032	-354.0071411132813	251.3653411865235	279.4861755371094	-403.1421508789064	257.4986267089844	244.464828491211	-367.4774169921876	267.5862731933594	225.8742218017579	-419.6029663085939	259.4721984863282	115.2229995727539	-363.2286987304688	349.3724060058594	123.6325759887696	-400.6709289550782	307.1355590820313	93.6687469482422	-302.2467651367188	275.8570251464844	58.10303115844728	-303.4009399414063	334.0881042480469	56.30191040039064	-307.8753662109376	344.7047729492188	55.30086135864259	-530.6250610351564	229.7616424560547	41.48313903808594	-492.9235839843751	
4	0.0125	495.8580322265626	1162.16162109375	-351.6386108398438	387.369354248047	1159.590942382813	-347.8350219726563	555.1528930664064	1105.816528320313	-555.9553833007814	316.1708068847657	1101.436157226563	-553.1524047851564	637.9360351562501	1024.048461914063	-447.4878234863282	639.9362792968751	836.459167480469	-459.252410888672	627.7415161132814	819.7173461914065	-516.4717407226564	630.1148681640626	753.7604370117189	-474.478729248047	606.6783447265626	737.7698364257814	-525.8190307617189	609.5447998046876	552.8295898437501	-456.8547668457032	483.4942932128907	538.6058959960939	-446.1933593750001	613.2496337890626	307.1820068359376	-360.4614257812501	615.0542602539064	287.9379882812501	-418.936248779297	611.5066528320314	249.4218292236329	-371.7973632812501	600.4032592773439	231.8294067382813	-427.8596496582032	605.4107666015626	114.6164703369141	-359.1981201171876	522.0923461914064	124.1604766845703	-403.9725952148439	560.4481811523439	95.45898437500001	-304.7103271484376	528.9105224609376	58.06390762329103	-314.2898864746094	592.8359985351564	58.75123214721681	-308.7558898925782	517.3388061523439	76.09461975097658	-380.3879089355469	618.4260253906251	72.21561431884767	-366.9902954101563	530.2882690429689	94.48940277099611	-438.171844482422	537.0289306640626	78.09915924072267	-469.3700256347657	586.2833251953126	101.893798828125	-477.4552612304689	632.2941284179689	47.71651458740235	-410.1953735351564	537.4252929687501	50.63765335083009	-527.3337402343751	592.0212402343751	65.92366027832033	-537.5615234375001	648.2493896484376	42.33972549438477	-490.6033935546876	582.5729980468751	53.33372497558595	-596.8155517578126	244.9449310302735	1013.251586914063	-441.856903076172	239.2032775878907	830.9412231445315	-442.2420654296876	242.5102691650391	813.9348754882815	-500.5537719726564	243.4734191894532	746.3900146484376	-455.856658935547	263.6094665527344	731.4047241210939	-511.693084716797	265.7314453125001	564.3004150390626	-441.2648010253907	396.8843688964845	553.6914672851564	-442.1362915039064	257.4986572265626	299.9841003417969	-353.7665100097657	251.1416015625001	279.1573486328126	-402.6265563964845	257.1878051757813	244.8565979003907	-367.6548156738282	267.6072387695313	225.7625427246094	-419.800262451172	259.4583435058594	115.2884521484375	-363.1759948730469	349.4692993164063	123.6955490112305	-400.5576782226564	306.6610717773438	94.65744781494142	-303.1375427246094	275.8427124023438	58.09864425659181	-303.4033813476563	334.1017456054688	56.3022804260254	-307.8810119628907	344.6787109375001	55.27143478393556	-530.6423339843751	229.7537536621094	41.47771072387696	-492.9402465820314	
